# xmcd
#
# Track frame offsets:
# 150
# 31087
# 61717
# 93825
# 123740
# 153362
# 187790
# 205907
# 233640
# 266880
# 306990
#
# Disc length: 4432 seconds
#
#
# Revision: 0
# Processed by: cddbd v1.5.1PL0 Copyright (c) Steve Scherf et al.
# Submitted via: FreeRIP 2.94 
#
DISCID=89114e0b
DTITLE=Dj Anderson Soares - House Essentials
DYEAR=2002
DGENRE=House
TTITLE0=Willy Washington Presen - Ain't no runnin' away
TTITLE1=Sunkids Feat. Chance - Rise up
TTITLE2=Johnny Corporate - Sunday Shoutin'
TTITLE3=A Lil Louis Painting: Rain - Give It Up
TTITLE4=Kerri Kaoz Chandler - Red Sun
TTITLE5=Men From The Nile - Watch Them Come
TTITLE6=Blaze - Wishing You Were Here
TTITLE7=Tom and Joyce - Vai Minha Tristeza
TTITLE8=CeCe Peniston - My Boo
TTITLE9=Jody Watley Feat. Roy Ayers - I Love To Love
TTITLE10=Jasper St. Company - Smile
EXTD=
EXTT0=
EXTT1=
EXTT2=
EXTT3=
EXTT4=
EXTT5=
EXTT6=
EXTT7=
EXTT8=
EXTT9=
EXTT10=
PLAYORDER=
